<svg width="40" height="40" viewBox="0 0 40 40" fill="none" xmlns="http://www.w3.org/2000/svg">
<path d="M20 4C28.8366 4 36 11.1634 36 20C36 28.8366 28.8366 36 20 36C11.1634 36 4 28.8366 4 20C4 11.1634 11.1634 4 20 4Z" fill="black"/>
<path d="M21.1234 27.355C21.477 27.7793 22.1075 27.8366 22.5318 27.4831C22.9561 27.1295 23.0134 26.4989 22.6598 26.0747L21.1234 27.355ZM15.999 19.6437L15.2308 19.0035C14.9218 19.3744 14.9218 19.9131 15.2308 20.2839L15.999 19.6437ZM22.6598 13.2128C23.0134 12.7885 22.9561 12.158 22.5318 11.8044C22.1075 11.4508 21.477 11.5081 21.1234 11.9324L22.6598 13.2128ZM22.6598 26.0747L16.7672 19.0035L15.2308 20.2839L21.1234 27.355L22.6598 26.0747ZM16.7672 20.2839L22.6598 13.2128L21.1234 11.9324L15.2308 19.0035L16.7672 20.2839ZM20 5C28.2843 5 35 11.7157 35 20H37C37 10.6112 29.3888 3 20 3V5ZM35 20C35 28.2843 28.2843 35 20 35V37C29.3888 37 37 29.3888 37 20H35ZM20 35C11.7157 35 5 28.2843 5 20H3C3 29.3888 10.6112 37 20 37V35ZM5 20C5 11.7157 11.7157 5 20 5V3C10.6112 3 3 10.6112 3 20H5Z" fill="white"/>
</svg>
