<svg width="13" height="13" viewBox="0 0 7 7" fill="none" xmlns="http://www.w3.org/2000/svg">
<path d="M4.45455 0.978027H1.59091C1.32682 0.978027 1.10091 1.12803 1.00545 1.34403L0.0445454 3.45903C0.0159091 3.52803 0 3.60003 0 3.67803V4.27803C0 4.60803 0.286364 4.87803 0.636364 4.87803H2.64409L2.34182 6.24903L2.33227 6.34503C2.33227 6.46803 2.38636 6.58203 2.47227 6.66303L2.80955 6.97803L4.90636 5.00103C5.02091 4.89303 5.09091 4.74303 5.09091 4.57803V1.57803C5.09091 1.24803 4.80455 0.978027 4.45455 0.978027ZM5.72727 0.978027V4.57803H7V2.77803V0.978027H5.72727Z" fill="#414141"/>
</svg>
