<svg width="17" height="21" viewBox="0 0 17 21" fill="none" xmlns="http://www.w3.org/2000/svg">
<path d="M1.20078 9.48982C1.65579 8.46573 2.31724 7.54656 3.14375 6.78982L3.82578 6.16403C3.84894 6.14337 3.87681 6.1287 3.90696 6.12133C3.9371 6.11395 3.9686 6.11408 3.99868 6.12172C4.02877 6.12936 4.05651 6.14426 4.07949 6.16512C4.10247 6.18599 4.11997 6.21217 4.13047 6.24138L4.43516 7.1156C4.625 7.66403 4.97422 8.22419 5.46875 8.77497C5.50156 8.81013 5.53906 8.8195 5.56484 8.82185C5.59062 8.82419 5.63047 8.8195 5.66563 8.78669C5.69844 8.75857 5.71484 8.71638 5.7125 8.67419C5.62578 7.26325 6.04766 5.67185 6.97109 3.93982C7.73516 2.50075 8.79688 1.3781 10.1234 0.595285L11.0914 0.0257535C11.218 -0.0492465 11.3797 0.0491909 11.3727 0.196847L11.3211 1.32185C11.2859 2.0906 11.375 2.77028 11.5859 3.33513C11.8438 4.02653 12.2141 4.66872 12.6875 5.24528C13.017 5.64598 13.3904 6.00841 13.8008 6.32575C14.7891 7.08552 15.5928 8.05904 16.1516 9.17341C16.709 10.2975 16.9993 11.5351 17 12.7898C17 13.8961 16.782 14.9672 16.3508 15.9773C15.9344 16.9499 15.3335 17.8326 14.5812 18.5765C13.8219 19.3265 12.9406 19.9172 11.9586 20.3273C10.9414 20.7539 9.86328 20.9695 8.75 20.9695C7.63672 20.9695 6.55859 20.7539 5.54141 20.3297C4.56179 19.9219 3.67099 19.3272 2.91875 18.5789C2.15938 17.8289 1.56406 16.9523 1.14922 15.9797C0.718618 14.9723 0.497723 13.8877 0.5 12.7922C0.5 11.6484 0.734375 10.5375 1.20078 9.48982Z" fill="#8d90ff"/>
</svg>
