<svg width="34" height="28" viewBox="0 0 34 28" fill="none" xmlns="http://www.w3.org/2000/svg">
<path d="M0.917969 8.06247L5.48145 1.02855L5.02179 0.714574L4.56348 0.399902L0 7.43382L0.459661 7.7478L0.917969 8.06247ZM2.17122 8.92035L2.62885 9.23502L7.19098 2.2011L6.73335 1.88643L6.27369 1.57245L1.71156 8.60637L2.17122 8.92035ZM3.88075 10.0922L4.34041 10.4069L8.90322 3.37365L8.44423 3.05968L7.98592 2.74431L3.42244 9.77823L3.88075 10.0922ZM27.9906 21.1891L28.4489 21.5031L30.5776 18.2223L30.1193 17.9083L29.6603 17.5936L27.5323 20.8744L27.9906 21.1891ZM33.082 19.9387L30.9548 23.2188L31.4124 23.5342L31.872 23.8482L34 20.5667L33.5417 20.2527L33.082 19.9387ZM30.1598 22.6749L32.2891 19.3948L31.8295 19.0801L31.3711 18.7662L29.2432 22.047L29.7015 22.3609L30.1598 22.6749ZM27.6858 21.66L27.2261 21.3461L25.0981 24.6275L25.5558 24.9408L26.0154 25.2555L28.1434 21.9747L27.6858 21.66ZM29.3966 22.8326L28.937 22.5179L26.809 25.7994L27.2673 26.1141L27.727 26.428L29.8549 23.1473L29.3966 22.8326ZM30.6479 23.6905L28.5199 26.9719L28.9782 27.2866L29.4365 27.5999L31.5658 24.3191L31.1062 24.0045L30.6479 23.6905ZM0.459661 20.2527L0 20.5667L4.56348 27.5999L5.02179 27.2866L5.48145 26.9719L0.917969 19.9387L0.459661 20.2527ZM4.60336 22.8326L4.14506 23.1473L6.27369 26.428L6.73335 26.1141L7.19098 25.7994L5.06302 22.5179L4.60336 22.8326ZM3.88075 17.9083L3.42244 18.2223L7.98592 25.2555L8.44423 24.9408L8.90322 24.6275L4.34041 17.5936L3.88075 17.9083ZM1.71156 19.3948L3.84019 22.6749L4.2985 22.3609L4.75816 22.047L2.62885 18.7662L2.17122 19.0801L1.71156 19.3948ZM31.1062 3.99605L31.5658 3.68138L29.4365 0.399902L28.9782 0.714574L28.5199 1.02855L30.6492 4.31003L31.1062 3.99605ZM27.6858 6.34046L28.1434 6.02579L26.0154 2.74431L25.5558 3.05968L25.0981 3.37365L27.2261 6.65444L27.6858 6.34046ZM30.9548 4.78169L33.082 8.06247L33.5417 7.7478L34 7.43382L31.872 4.15304L31.4124 4.46702L30.9548 4.78169ZM31.8295 8.92035L32.2891 8.60637L27.727 1.57245L27.2673 1.88643L26.809 2.2011L31.3711 9.23502L31.8295 8.92035ZM30.1193 10.0922L30.5776 9.77823L28.4489 6.49675L27.9906 6.81143L27.5323 7.1261L29.6603 10.4069L30.1193 10.0922Z" fill="currentColor"/>
<path d="M17 6.06665C12.6251 6.06665 9.06665 9.62547 9.06665 14C9.06665 18.3745 12.6251 21.9333 17 21.9333C21.3748 21.9333 24.9333 18.3745 24.9333 14C24.9333 9.62547 21.3748 6.06665 17 6.06665ZM22.0875 12.9829C21.6867 12.7156 21.2371 12.5299 20.7645 12.4364C20.2919 12.3428 19.8055 12.3433 19.3331 12.4377C18.8606 12.5322 18.4114 12.7187 18.0111 12.9868C17.6108 13.2549 17.2672 13.5991 17 14C16.4601 14.8094 15.6208 15.3713 14.6666 15.5621C13.7125 15.753 12.7216 15.5571 11.9119 15.0176C11.1425 14.5052 10.5961 13.7201 10.3828 12.8207C10.943 9.67249 13.6935 7.27242 17.0006 7.27242C20.7098 7.27242 23.7281 10.2904 23.7281 14C23.7281 14.4039 23.6865 14.7976 23.6171 15.1822C23.4046 14.2817 22.8578 13.4956 22.0875 12.9829Z" fill="currentColor"/>
</svg>
