<svg width="12" height="14" viewBox="0 0 6 7" fill="none" xmlns="http://www.w3.org/2000/svg">
<path d="M0 6.97803H1.09091V3.37803H0V6.97803ZM6 3.67803C6 3.34803 5.75455 3.07803 5.45455 3.07803H3.73364L3.99273 1.70703L4.00091 1.61103C4.00091 1.48803 3.95455 1.37403 3.88091 1.29303L3.59182 0.978027L1.79727 2.95503C1.69636 3.06303 1.63636 3.21303 1.63636 3.37803V6.37803C1.63636 6.70803 1.88182 6.97803 2.18182 6.97803H4.63636C4.86273 6.97803 5.05636 6.82803 5.13818 6.61203L5.96182 4.49703C5.98636 4.42803 6 4.35603 6 4.27803V3.67803Z" fill="#8D90FF"/>
</svg>
