<svg width="26" height="26" viewBox="0 0 26 26" fill="none" xmlns="http://www.w3.org/2000/svg">
<g clip-path="url(#clip0_377_1318)">
<path d="M17.5363 9.56523C17.5363 10.8337 17.0324 12.0501 16.1355 12.947C15.2386 13.844 14.0221 14.3478 12.7537 14.3478C11.4853 14.3478 10.2688 13.844 9.37186 12.947C8.47495 12.0501 7.97107 10.8337 7.97107 9.56523C7.97107 8.29681 8.47495 7.08033 9.37186 6.18342C10.2688 5.2865 11.4853 4.78262 12.7537 4.78262C14.0221 4.78262 15.2386 5.2865 16.1355 6.18342C17.0324 7.08033 17.5363 8.29681 17.5363 9.56523Z" fill="#616161"/>
<path fill-rule="evenodd" clip-rule="evenodd" d="M0 12.7536C0 9.37115 1.34368 6.12722 3.73545 3.73545C6.12722 1.34368 9.37115 0 12.7536 0C16.1361 0 19.38 1.34368 21.7718 3.73545C24.1636 6.12722 25.5072 9.37115 25.5072 12.7536C25.5072 16.1361 24.1636 19.38 21.7718 21.7718C19.38 24.1636 16.1361 25.5072 12.7536 25.5072C9.37115 25.5072 6.12722 24.1636 3.73545 21.7718C1.34368 19.38 0 16.1361 0 12.7536ZM12.7536 1.5942C10.6521 1.59431 8.59334 2.18782 6.81426 3.30642C5.03519 4.42502 3.60813 6.02323 2.69733 7.91712C1.78654 9.81101 1.42902 11.9236 1.66594 14.0117C1.90286 16.0998 2.72458 18.0786 4.03652 19.7203C5.16841 17.8965 7.66015 15.942 12.7536 15.942C17.8471 15.942 20.3372 17.8949 21.4707 19.7203C22.7827 18.0786 23.6044 16.0998 23.8413 14.0117C24.0782 11.9236 23.7207 9.81101 22.8099 7.91712C21.8991 6.02323 20.4721 4.42502 18.693 3.30642C16.9139 2.18782 14.8551 1.59431 12.7536 1.5942Z" fill="#616161"/>
</g>
<defs>
<clipPath id="clip0_377_1318">
<rect width="25.5072" height="25.5072" fill="white"/>
</clipPath>
</defs>
</svg>
