<svg width="38" height="25" viewBox="0 0 39 26" fill="none" xmlns="http://www.w3.org/2000/svg">
<path d="M36.2312 10.625H2.01875C0.903825 10.625 0 11.5288 0 12.6437V12.8563C0 13.9712 0.903825 14.875 2.01875 14.875H36.2312C37.3462 14.875 38.25 13.9712 38.25 12.8563V12.6437C38.25 11.5288 37.3462 10.625 36.2312 10.625Z" fill="#616161"/>
<path d="M36.2312 21.25H2.01875C0.903825 21.25 0 22.1538 0 23.2688V23.4812C0 24.5962 0.903825 25.5 2.01875 25.5H36.2312C37.3462 25.5 38.25 24.5962 38.25 23.4812V23.2688C38.25 22.1538 37.3462 21.25 36.2312 21.25Z" fill="#616161"/>
<path d="M36.2312 0H2.01875C0.903825 0 0 0.903825 0 2.01875V2.23125C0 3.34618 0.903825 4.25 2.01875 4.25H36.2312C37.3462 4.25 38.25 3.34618 38.25 2.23125V2.01875C38.25 0.903825 37.3462 0 36.2312 0Z" fill="#616161"/>
</svg>
