<svg width="33" height="33" viewBox="0 0 33 33" fill="none" xmlns="http://www.w3.org/2000/svg">
<path d="M16.4133 5.18335C13.5713 5.18335 11.2675 7.87312 11.2675 11.1911C11.2675 13.4923 12.3756 15.4908 14.0029 16.4999L12.1159 17.3745L7.09442 19.7034C6.60932 19.946 6.36721 20.3573 6.36721 20.9394V26.4697C6.40711 27.1612 6.82198 27.8056 7.4946 27.8165H25.3592C26.1271 27.7497 26.5155 27.1312 26.5231 26.4697V20.9394C26.5231 20.3573 26.281 19.946 25.7959 19.7034L20.9562 17.3745L18.9449 16.4216C20.5054 15.3898 21.5591 13.4344 21.5591 11.1912C21.5591 7.87312 19.2552 5.18335 16.4133 5.18335ZM8.11313 7.29601C6.89013 7.34246 5.92086 7.87167 5.18446 8.7149C4.36992 9.73014 3.97281 10.9355 3.96514 12.1346C4.01516 13.9078 4.80854 15.5864 6.22094 16.4644L0.581982 19.0848C0.193875 19.2304 0 19.5699 0 20.1036V24.542C0.030305 25.1306 0.33594 25.6254 0.909012 25.6338H4.65682V20.9394C4.71883 19.6843 5.30822 18.6699 6.36721 18.1748L10.114 16.3923C10.4051 16.2225 10.6841 15.9917 10.9509 15.7007C9.40607 13.3171 9.19154 10.4622 10.1872 7.95114C9.53961 7.55484 8.81188 7.30016 8.11313 7.29601ZM24.8492 7.29601C24.0495 7.31276 23.3103 7.60728 22.7032 8.02322C23.6716 10.557 23.4045 13.4137 21.9749 15.6275C22.2903 15.9913 22.6185 16.2704 22.9581 16.4645L26.5597 18.1748C27.6568 18.7765 28.2226 19.8 28.2335 20.9394V25.6339H32.0899C32.7242 25.5791 32.9945 25.0732 33 24.542V20.1036C33 19.6185 32.8061 19.2789 32.418 19.0848L26.8512 16.4279C28.2949 15.3634 29.0198 13.7681 29.0338 12.1346C28.9954 10.8418 28.6005 9.64137 27.8145 8.7149C26.9932 7.82393 25.9745 7.30544 24.8492 7.29601Z" fill="currentColor"/>
</svg>
