<svg width="20" height="20" viewBox="0 0 20 20" fill="none" xmlns="http://www.w3.org/2000/svg">
<rect width="20" height="20" fill="white"/>
<path d="M19 10.5C19 15.1944 15.1944 19 10.5 19C5.80558 19 2 15.1944 2 10.5C2 5.80558 5.80558 2 10.5 2C15.1944 2 19 5.80558 19 10.5Z" fill="#D9D9D9"/>
<path d="M14.2123 8.2019C14.6028 7.81138 14.6028 7.17821 14.2123 6.78769C13.8218 6.39717 13.1886 6.39717 12.7981 6.78769L14.2123 8.2019ZM6.78769 12.7981C6.39716 13.1886 6.39716 13.8218 6.78769 14.2123C7.17821 14.6028 7.81138 14.6028 8.2019 14.2123L6.78769 12.7981ZM12.7981 14.2123C13.1886 14.6028 13.8218 14.6028 14.2123 14.2123C14.6028 13.8218 14.6028 13.1886 14.2123 12.7981L12.7981 14.2123ZM8.2019 6.78769C7.81138 6.39716 7.17821 6.39716 6.78769 6.78769C6.39716 7.17821 6.39716 7.81138 6.78769 8.2019L8.2019 6.78769ZM18 10.5C18 14.6421 14.6421 18 10.5 18V20C15.7467 20 20 15.7467 20 10.5H18ZM10.5 18C6.35786 18 3 14.6421 3 10.5H1C1 15.7467 5.25329 20 10.5 20V18ZM3 10.5C3 6.35786 6.35786 3 10.5 3V1C5.25329 1 1 5.25329 1 10.5H3ZM10.5 3C14.6421 3 18 6.35786 18 10.5H20C20 5.25329 15.7467 1 10.5 1V3ZM12.7981 6.78769L9.79289 9.79289L11.2071 11.2071L14.2123 8.2019L12.7981 6.78769ZM9.79289 9.79289L6.78769 12.7981L8.2019 14.2123L11.2071 11.2071L9.79289 9.79289ZM14.2123 12.7981L11.2071 9.79289L9.79289 11.2071L12.7981 14.2123L14.2123 12.7981ZM11.2071 9.79289L8.2019 6.78769L6.78769 8.2019L9.79289 11.2071L11.2071 9.79289Z" fill="white"/>
</svg>
